<?xml version="1.0" encoding="utf-8"?>
<!-- Generator: Adobe Illustrator 19.0.0, SVG Export Plug-In . SVG Version: 6.00 Build 0)  -->
<svg version="1.1" id="Layer_2" xmlns="http://www.w3.org/2000/svg" x="0px" y="0px"
     viewBox="0 0 307.5 165.3">
    <path id="XMLID_3_" fill="#FFFFFF" d="M0.9,0h41c0.6,0,1,0.4,1.1,0.9C44.9,13.2,64.3,140.1,64.9,144c0.7,4.1,4.8,4.1,5.7,0
	c0.8-3.9,26.7-131.2,29.2-143.1c0.1-0.5,0.6-0.9,1.1-0.9h184.9c12.8,0,23.5,11.3,21.5,23.3c-1.8,10.8-8.8,36.6-10.1,41.5
	c-0.1,0.5-0.6,0.8-1.1,0.8h-39.7c-0.7,0-1.3-0.7-1.1-1.4l9-37.9c0,0,2.7-9.7-10.3-9.7s-24.5-1.8-28.3,12.7
	c-4.9,16.6-2.8,31.7-23.9,41.4c-0.7,0.3-0.9,1.2-0.4,1.8c2.8,3.2,9.7,12.8,5.6,25.2c-4.8,14.8-9.3,30.9-9.7,31.9c0,0,0,0.1,0,0.1
	c-0.4,0.9-6,14.8,11.7,16.7c18.3,2,24.7-9.4,27.3-17c2.4-7,11-41.9,12.5-47.8c0.1-0.5,0.6-0.9,1.1-0.9h40.7c0.7,0,1.3,0.7,1.1,1.4
	c-2,8.4-12.3,52.2-14.7,57.6c-2.6,6-3.8,10.9-9.8,16s-15.4,9.6-27.3,9.6c-14.3,0-60.8,0-66,0c-5.2,0-10.1-1.7-16-6.7
	c-9-7.5-5.8-16.3-4.4-21.9c1.4-5.7,11.1-41.7,11.1-41.7s4.3-14.3-15.7-14.3H140c-0.1,0-0.2,0-0.3,0c-0.8-0.2-3.7-1.4-2.5-7
	c1.3-6.3,1.6-7.2,1.6-7.2s1-3.4,5.2-3.2c0,0,12.6,0,16.8,0s10-4,13-11.9s3.4-8,4.3-17.9s-2.5-15.6-10.4-15.6h-23.5
	c-0.5,0-1,0.3-1.1,0.8l-38.8,145.8c-0.1,0.5-0.6,0.8-1.1,0.8H32.1c-0.5,0-1-0.4-1.1-0.9L-0.2,1.3C-0.3,0.6,0.2,0,0.9,0z"/>
</svg>
